# Blender 4.2.0
# www.blender.org
mtllib cylinder.mtl
o Cylinder
v 0.000000 -1.000000 -1.000000
v 0.000000 1.000000 -0.252481
v 0.195090 -1.000000 -0.980785
v 0.049257 1.000000 -0.247630
v 0.382683 -1.000000 -0.923880
v 0.096620 1.000000 -0.233262
v 0.555570 -1.000000 -0.831470
v 0.140271 1.000000 -0.209930
v 0.707107 -1.000000 -0.707107
v 0.178531 1.000000 -0.178531
v 0.831470 -1.000000 -0.555570
v 0.209930 1.000000 -0.140271
v 0.923880 -1.000000 -0.382683
v 0.233262 1.000000 -0.096620
v 0.980785 -1.000000 -0.195090
v 0.247630 1.000000 -0.049257
v 1.000000 -1.000000 0.000000
v 0.252481 1.000000 -0.000000
v 0.980785 -1.000000 0.195090
v 0.247630 1.000000 0.049257
v 0.923880 -1.000000 0.382683
v 0.233262 1.000000 0.096620
v 0.831470 -1.000000 0.555570
v 0.209930 1.000000 0.140271
v 0.707107 -1.000000 0.707107
v 0.178531 1.000000 0.178531
v 0.555570 -1.000000 0.831470
v 0.140271 1.000000 0.209930
v 0.382683 -1.000000 0.923880
v 0.096620 1.000000 0.233262
v 0.195090 -1.000000 0.980785
v 0.049257 1.000000 0.247630
v 0.000000 -1.000000 1.000000
v 0.000000 1.000000 0.252481
v -0.195090 -1.000000 0.980785
v -0.049257 1.000000 0.247630
v -0.382683 -1.000000 0.923880
v -0.096620 1.000000 0.233262
v -0.555570 -1.000000 0.831470
v -0.140271 1.000000 0.209930
v -0.707107 -1.000000 0.707107
v -0.178531 1.000000 0.178531
v -0.831470 -1.000000 0.555570
v -0.209930 1.000000 0.140271
v -0.923880 -1.000000 0.382683
v -0.233262 1.000000 0.096620
v -0.980785 -1.000000 0.195090
v -0.247630 1.000000 0.049257
v -1.000000 -1.000000 0.000000
v -0.252481 1.000000 -0.000000
v -0.980785 -1.000000 -0.195090
v -0.247630 1.000000 -0.049257
v -0.923880 -1.000000 -0.382683
v -0.233262 1.000000 -0.096620
v -0.831470 -1.000000 -0.555570
v -0.209930 1.000000 -0.140271
v -0.707107 -1.000000 -0.707107
v -0.178531 1.000000 -0.178531
v -0.555570 -1.000000 -0.831470
v -0.140271 1.000000 -0.209930
v -0.382683 -1.000000 -0.923880
v -0.096620 1.000000 -0.233262
v -0.195090 -1.000000 -0.980785
v -0.049257 1.000000 -0.247630
v 0.000000 -1.003516 -0.990593
v 0.193255 -1.003516 -0.971559
v 0.047421 0.996484 -0.238403
v 0.000000 0.996484 -0.243074
v 0.379084 -1.003516 -0.915189
v 0.093020 0.996484 -0.224571
v 0.550344 -1.003516 -0.823648
v 0.135045 0.996484 -0.202109
v 0.700455 -1.003516 -0.700455
v 0.171879 0.996484 -0.171879
v 0.823648 -1.003516 -0.550344
v 0.202109 0.996484 -0.135045
v 0.915189 -1.003516 -0.379084
v 0.224571 0.996484 -0.093020
v 0.971559 -1.003516 -0.193255
v 0.238403 0.996484 -0.047421
v 0.990593 -1.003516 0.000000
v 0.243074 0.996484 -0.000000
v 0.971559 -1.003516 0.193255
v 0.238403 0.996484 0.047421
v 0.915189 -1.003516 0.379084
v 0.224571 0.996484 0.093020
v 0.823648 -1.003516 0.550344
v 0.202109 0.996484 0.135045
v 0.700455 -1.003516 0.700455
v 0.171879 0.996484 0.171879
v 0.550344 -1.003516 0.823648
v 0.135045 0.996484 0.202109
v 0.379084 -1.003516 0.915189
v 0.093020 0.996484 0.224571
v 0.193255 -1.003516 0.971559
v 0.047421 0.996484 0.238403
v 0.000000 -1.003516 0.990593
v 0.000000 0.996484 0.243074
v -0.193255 -1.003516 0.971559
v -0.047421 0.996484 0.238403
v -0.379084 -1.003516 0.915189
v -0.093020 0.996484 0.224571
v -0.550344 -1.003516 0.823648
v -0.135045 0.996484 0.202109
v -0.700455 -1.003516 0.700455
v -0.171879 0.996484 0.171879
v -0.823648 -1.003516 0.550344
v -0.202109 0.996484 0.135045
v -0.915189 -1.003516 0.379084
v -0.224571 0.996484 0.093020
v -0.971559 -1.003516 0.193255
v -0.238403 0.996484 0.047421
v -0.990593 -1.003516 0.000000
v -0.243074 0.996484 -0.000000
v -0.971559 -1.003516 -0.193255
v -0.238403 0.996484 -0.047421
v -0.915189 -1.003516 -0.379084
v -0.224571 0.996484 -0.093020
v -0.823648 -1.003516 -0.550344
v -0.202109 0.996484 -0.135045
v -0.700455 -1.003516 -0.700455
v -0.171879 0.996484 -0.171879
v -0.550344 -1.003516 -0.823648
v -0.135045 0.996484 -0.202109
v -0.379084 -1.003516 -0.915189
v -0.093020 0.996484 -0.224571
v -0.193255 -1.003516 -0.971559
v -0.047421 0.996484 -0.238403
vn -0.0000 0.3501 -0.9367
vn 0.1827 0.3501 -0.9187
vn 0.3585 0.3501 -0.8654
vn 0.5204 0.3501 -0.7788
vn 0.6624 0.3501 -0.6624
vn 0.7788 0.3501 -0.5204
vn 0.8654 0.3501 -0.3585
vn 0.9187 0.3501 -0.1827
vn 0.9367 0.3501 -0.0000
vn 0.9187 0.3501 0.1827
vn 0.8654 0.3501 0.3585
vn 0.7788 0.3501 0.5204
vn 0.6624 0.3501 0.6624
vn 0.5204 0.3501 0.7788
vn 0.3585 0.3501 0.8654
vn 0.1827 0.3501 0.9187
vn -0.0000 0.3501 0.9367
vn -0.1827 0.3501 0.9187
vn -0.3585 0.3501 0.8654
vn -0.5204 0.3501 0.7788
vn -0.6624 0.3501 0.6624
vn -0.7788 0.3501 0.5204
vn -0.8654 0.3501 0.3585
vn -0.9187 0.3501 0.1827
vn -0.9367 0.3501 -0.0000
vn -0.9187 0.3501 -0.1827
vn -0.8654 0.3501 -0.3585
vn -0.7788 0.3501 -0.5204
vn -0.6624 0.3501 -0.6624
vn -0.5204 0.3501 -0.7788
vn -0.3585 0.3501 -0.8654
vn -0.1827 0.3501 -0.9187
vn -0.0000 -0.3501 0.9367
vn -0.1827 -0.3501 0.9187
vn -0.3585 -0.3501 0.8654
vn -0.5204 -0.3501 0.7788
vn -0.6624 -0.3501 0.6624
vn -0.7788 -0.3501 0.5204
vn -0.8654 -0.3501 0.3585
vn -0.9187 -0.3501 0.1827
vn -0.9367 -0.3501 -0.0000
vn -0.9187 -0.3501 -0.1827
vn -0.8654 -0.3501 -0.3585
vn -0.7788 -0.3501 -0.5204
vn -0.6624 -0.3501 -0.6624
vn -0.5204 -0.3501 -0.7788
vn -0.3585 -0.3501 -0.8654
vn -0.1827 -0.3501 -0.9187
vn -0.0000 -0.3501 -0.9367
vn 0.1827 -0.3501 -0.9187
vn 0.3585 -0.3501 -0.8654
vn 0.5204 -0.3501 -0.7788
vn 0.6624 -0.3501 -0.6624
vn 0.7788 -0.3501 -0.5204
vn 0.8654 -0.3501 -0.3585
vn 0.9187 -0.3501 -0.1827
vn 0.9367 -0.3501 -0.0000
vn 0.9187 -0.3501 0.1827
vn 0.8654 -0.3501 0.3585
vn 0.7788 -0.3501 0.5204
vn 0.6624 -0.3501 0.6624
vn 0.5204 -0.3501 0.7788
vn 0.3585 -0.3501 0.8654
vn 0.1827 -0.3501 0.9187
vt 1.000000 0.500000
vt 1.000000 1.000000
vt 0.968750 1.000000
vt 0.968750 0.500000
vt 0.937500 1.000000
vt 0.937500 0.500000
vt 0.906250 1.000000
vt 0.906250 0.500000
vt 0.875000 1.000000
vt 0.875000 0.500000
vt 0.843750 1.000000
vt 0.843750 0.500000
vt 0.812500 1.000000
vt 0.812500 0.500000
vt 0.781250 1.000000
vt 0.781250 0.500000
vt 0.750000 1.000000
vt 0.750000 0.500000
vt 0.718750 1.000000
vt 0.718750 0.500000
vt 0.687500 1.000000
vt 0.687500 0.500000
vt 0.656250 1.000000
vt 0.656250 0.500000
vt 0.625000 1.000000
vt 0.625000 0.500000
vt 0.593750 1.000000
vt 0.593750 0.500000
vt 0.562500 1.000000
vt 0.562500 0.500000
vt 0.531250 1.000000
vt 0.531250 0.500000
vt 0.500000 1.000000
vt 0.500000 0.500000
vt 0.468750 1.000000
vt 0.468750 0.500000
vt 0.437500 1.000000
vt 0.437500 0.500000
vt 0.406250 1.000000
vt 0.406250 0.500000
vt 0.375000 1.000000
vt 0.375000 0.500000
vt 0.343750 1.000000
vt 0.343750 0.500000
vt 0.312500 1.000000
vt 0.312500 0.500000
vt 0.281250 1.000000
vt 0.281250 0.500000
vt 0.250000 1.000000
vt 0.250000 0.500000
vt 0.218750 1.000000
vt 0.218750 0.500000
vt 0.187500 1.000000
vt 0.187500 0.500000
vt 0.156250 1.000000
vt 0.156250 0.500000
vt 0.125000 1.000000
vt 0.125000 0.500000
vt 0.093750 1.000000
vt 0.093750 0.500000
vt 0.062500 1.000000
vt 0.062500 0.500000
vt 0.031250 1.000000
vt 0.031250 0.500000
vt 0.000000 1.000000
vt 0.000000 0.500000
s 1
f 1/1/1 2/2/1 4/3/2 3/4/2
f 3/4/2 4/3/2 6/5/3 5/6/3
f 5/6/3 6/5/3 8/7/4 7/8/4
f 7/8/4 8/7/4 10/9/5 9/10/5
f 9/10/5 10/9/5 12/11/6 11/12/6
f 11/12/6 12/11/6 14/13/7 13/14/7
f 13/14/7 14/13/7 16/15/8 15/16/8
f 15/16/8 16/15/8 18/17/9 17/18/9
f 17/18/9 18/17/9 20/19/10 19/20/10
f 19/20/10 20/19/10 22/21/11 21/22/11
f 21/22/11 22/21/11 24/23/12 23/24/12
f 23/24/12 24/23/12 26/25/13 25/26/13
f 25/26/13 26/25/13 28/27/14 27/28/14
f 27/28/14 28/27/14 30/29/15 29/30/15
f 29/30/15 30/29/15 32/31/16 31/32/16
f 31/32/16 32/31/16 34/33/17 33/34/17
f 33/34/17 34/33/17 36/35/18 35/36/18
f 35/36/18 36/35/18 38/37/19 37/38/19
f 37/38/19 38/37/19 40/39/20 39/40/20
f 39/40/20 40/39/20 42/41/21 41/42/21
f 41/42/21 42/41/21 44/43/22 43/44/22
f 43/44/22 44/43/22 46/45/23 45/46/23
f 45/46/23 46/45/23 48/47/24 47/48/24
f 47/48/24 48/47/24 50/49/25 49/50/25
f 49/50/25 50/49/25 52/51/26 51/52/26
f 51/52/26 52/51/26 54/53/27 53/54/27
f 53/54/27 54/53/27 56/55/28 55/56/28
f 55/56/28 56/55/28 58/57/29 57/58/29
f 57/58/29 58/57/29 60/59/30 59/60/30
f 59/60/30 60/59/30 62/61/31 61/62/31
f 66/4/34 69/6/35 70/5/35 67/3/34
f 61/62/31 62/61/31 64/63/32 63/64/32
f 63/64/32 64/63/32 2/65/1 1/66/1
f 65/1/33 66/4/34 67/3/34 68/2/33
f 69/6/35 71/8/36 72/7/36 70/5/35
f 71/8/36 73/10/37 74/9/37 72/7/36
f 73/10/37 75/12/38 76/11/38 74/9/37
f 75/12/38 77/14/39 78/13/39 76/11/38
f 77/14/39 79/16/40 80/15/40 78/13/39
f 79/16/40 81/18/41 82/17/41 80/15/40
f 81/18/41 83/20/42 84/19/42 82/17/41
f 83/20/42 85/22/43 86/21/43 84/19/42
f 85/22/43 87/24/44 88/23/44 86/21/43
f 87/24/44 89/26/45 90/25/45 88/23/44
f 89/26/45 91/28/46 92/27/46 90/25/45
f 91/28/46 93/30/47 94/29/47 92/27/46
f 93/30/47 95/32/48 96/31/48 94/29/47
f 95/32/48 97/34/49 98/33/49 96/31/48
f 97/34/49 99/36/50 100/35/50 98/33/49
f 99/36/50 101/38/51 102/37/51 100/35/50
f 101/38/51 103/40/52 104/39/52 102/37/51
f 103/40/52 105/42/53 106/41/53 104/39/52
f 105/42/53 107/44/54 108/43/54 106/41/53
f 107/44/54 109/46/55 110/45/55 108/43/54
f 109/46/55 111/48/56 112/47/56 110/45/55
f 111/48/56 113/50/57 114/49/57 112/47/56
f 113/50/57 115/52/58 116/51/58 114/49/57
f 115/52/58 117/54/59 118/53/59 116/51/58
f 117/54/59 119/56/60 120/55/60 118/53/59
f 119/56/60 121/58/61 122/57/61 120/55/60
f 121/58/61 123/60/62 124/59/62 122/57/61
f 123/60/62 125/62/63 126/61/63 124/59/62
f 125/62/63 127/64/64 128/63/64 126/61/63
f 127/64/64 65/66/33 68/65/33 128/63/64
